<svg width="77" height="206" viewBox="0 0 77 206" fill="none" xmlns="http://www.w3.org/2000/svg">
<path d="M21.1126 109.354C31.6172 112.141 43.8368 110.212 53.9127 105.281C57.7715 114.285 59.9153 123.932 59.701 133.793C59.2722 158.876 42.9793 180.957 19.8263 189.961C21.1126 183.744 22.8276 177.956 24.9714 171.953C26.2577 168.094 20.2551 166.379 18.7544 170.238C15.9675 177.956 13.8237 185.888 12.323 194.034C12.1086 195.32 12.5374 196.607 13.6093 197.464C14.0381 198.107 14.4668 198.751 15.5387 198.965C23.042 201.323 30.3309 203.467 37.8342 205.825C41.693 207.111 43.4081 200.894 39.5493 199.608C34.6185 198.107 29.6878 196.607 24.757 195.106C47.2669 185.245 63.5598 164.021 65.918 138.939C66.9899 127.576 64.8461 114.285 59.701 102.28C60.3441 101.851 60.9872 101.422 61.6304 100.993C72.7781 92.8469 76.637 80.6273 75.9938 67.3357C74.0644 30.6768 44.6943 2.8074 8.67853 0.020462C4.60531 -0.408295 4.60531 6.02309 8.67853 6.45186C39.7636 9.02441 65.7036 32.3918 69.3481 63.9057C70.8487 77.4116 67.4186 88.9881 57.1284 96.277C50.0538 82.9854 38.9061 72.2665 24.1139 69.6939C13.6093 67.9789 1.17523 72.0521 0.103333 84.0574C-1.18295 96.277 9.75047 106.353 21.1126 109.354ZM33.1179 79.7698C39.1205 83.4142 44.2656 88.7737 48.1245 94.562C49.1964 96.0626 50.0539 97.5633 50.9114 99.2784H50.697C37.6198 105.281 9.96484 107.854 6.96352 88.345C4.17658 71.1946 24.5427 74.8391 33.1179 79.7698Z" fill="#064EA4"/>
</svg>
